<?xml version="1.0" encoding="UTF-8" standalone="no"?>
<!DOCTYPE svg PUBLIC "-//W3C//DTD SVG 1.1//EN" "http://www.w3.org/Graphics/SVG/1.1/DTD/svg11.dtd">
<svg xmlns="http://www.w3.org/2000/svg" version="1.1" viewBox="0.00 0.00 1024.00 1024.00">
<path fill="#244d9e" d="
  M 179.28 499.37
  Q 179.40 498.77 178.83 498.44
  C 177.32 497.58 175.84 496.90 174.33 495.87
  Q 102.91 447.19 86.29 435.75
  Q 83.16 433.60 81.54 429.25
  Q 80.64 426.86 80.63 421.17
  Q 80.58 404.33 80.94 394.49
  A 1.83 1.83 0.0 0 1 81.15 393.68
  Q 83.53 389.02 88.23 390.22
  A 2.04 1.98 67.6 0 1 88.83 390.48
  C 89.87 391.14 92.14 391.83 93.69 392.85
  Q 107.07 401.61 116.37 407.88
  Q 161.92 438.59 206.74 468.76
  Q 221.51 478.70 226.87 482.63
  Q 233.01 487.12 233.09 494.74
  Q 233.18 503.64 232.80 505.79
  Q 231.84 511.24 226.83 514.60
  Q 162.78 557.57 90.95 605.19
  C 86.39 608.22 80.51 606.52 80.53 600.29
  Q 80.58 586.56 80.63 573.38
  C 80.65 567.17 84.15 563.10 89.05 559.80
  Q 144.44 522.51 178.80 500.05
  Q 179.19 499.79 179.28 499.37
  Z"
/>
<ellipse fill="#0d94ff" cx="0.00" cy="0.00" transform="translate(467.62,410.55) rotate(-0.7)" rx="20.89" ry="19.26"/>
<path fill="#0d94ff" d="
  M 710.28 559.60
  A 0.51 0.51 0.0 0 0 709.35 559.36
  Q 706.41 563.74 701.38 567.14
  Q 691.53 573.79 680.76 574.88
  C 657.49 577.21 635.13 568.93 630.15 543.73
  Q 628.51 535.45 630.56 525.31
  C 633.88 508.88 648.75 499.75 664.94 496.41
  C 667.59 495.86 670.59 496.04 673.55 495.46
  Q 674.98 495.17 676.98 495.14
  Q 695.17 494.89 709.94 495.09
  A 0.45 0.44 0.7 0 0 710.39 494.66
  C 710.78 484.53 708.44 472.37 697.48 469.03
  Q 686.79 465.77 676.47 469.21
  Q 674.93 469.72 670.36 473.12
  A 4.72 4.55 -88.6 0 0 669.49 473.98
  Q 665.12 479.66 664.05 486.03
  Q 663.68 488.24 663.00 489.42
  A 0.47 0.46 21.3 0 1 662.49 489.64
  L 633.18 482.28
  A 0.57 0.57 0.0 0 1 632.76 481.62
  Q 637.50 455.44 662.59 446.35
  Q 670.63 443.44 673.79 443.28
  C 677.41 443.09 681.81 442.13 685.42 442.16
  Q 701.48 442.26 713.03 446.22
  Q 735.18 453.81 740.71 477.78
  Q 740.94 478.78 741.63 484.26
  Q 742.06 487.71 742.04 490.76
  Q 741.89 533.30 742.13 557.50
  Q 742.20 565.02 742.83 572.02
  A 0.90 0.90 0.0 0 1 741.93 572.99
  L 712.85 572.99
  A 1.53 1.53 0.0 0 1 711.33 571.59
  L 710.28 559.60
  Z
  M 709.65 515.08
  C 707.85 515.18 706.15 515.78 704.28 515.82
  C 692.27 516.04 685.41 515.46 676.50 517.99
  Q 666.20 520.91 664.95 530.09
  C 662.58 547.42 679.22 550.80 692.03 547.51
  Q 704.21 544.38 708.76 533.30
  C 710.23 529.72 710.16 526.24 710.24 521.39
  Q 710.33 516.02 710.27 515.60
  A 0.60 0.60 0.0 0 0 709.65 515.08
  Z"
/>
<path fill="#0d94ff" d="
  M 344.12 456.20
  A 0.42 0.42 0.0 0 0 344.84 456.49
  Q 354.84 446.35 368.74 444.27
  Q 373.39 443.58 383.98 444.15
  Q 395.59 444.78 405.16 451.17
  C 415.14 457.83 421.19 468.91 422.91 480.52
  C 423.36 483.57 423.98 489.12 423.99 493.56
  Q 424.09 528.98 424.05 572.51
  A 0.48 0.48 0.0 0 1 423.57 572.99
  L 390.85 572.99
  A 0.80 0.80 0.0 0 1 390.05 572.19
  Q 390.03 503.60 390.05 497.25
  Q 390.05 492.77 388.79 487.45
  Q 386.00 475.70 375.44 472.57
  C 371.76 471.48 365.22 471.61 361.58 472.49
  Q 349.64 475.36 345.59 485.98
  Q 343.77 490.76 344.05 502.37
  Q 344.09 503.85 344.15 572.28
  A 0.70 0.70 0.0 0 1 343.45 572.98
  L 310.45 572.98
  A 0.45 0.45 0.0 0 1 310.00 572.53
  L 310.00 446.15
  A 1.17 1.17 0.0 0 1 311.17 444.98
  L 343.44 444.98
  A 0.68 0.68 0.0 0 1 344.12 445.66
  L 344.12 456.20
  Z"
/>
<path fill="#0d94ff" d="
  M 921.04 572.30
  Q 920.99 549.03 920.90 493.59
  Q 920.89 487.37 917.43 480.66
  Q 914.07 474.16 905.66 472.40
  C 895.75 470.34 884.27 475.43 881.19 485.41
  Q 879.81 489.89 879.69 497.75
  Q 879.62 502.62 879.84 572.16
  A 0.85 0.84 0.0 0 1 878.99 573.00
  L 847.32 573.00
  A 0.74 0.73 84.2 0 1 846.60 572.41
  Q 846.36 571.14 846.36 569.25
  Q 846.36 509.10 846.35 495.50
  C 846.34 487.13 843.90 478.00 836.24 473.79
  C 831.31 471.08 824.17 471.55 818.80 473.06
  C 810.96 475.25 805.90 481.98 804.34 489.71
  Q 803.93 491.72 803.95 501.33
  Q 803.97 520.43 803.95 572.49
  A 0.51 0.51 0.0 0 1 803.44 573.00
  L 770.47 573.00
  A 0.47 0.47 0.0 0 1 770.00 572.53
  L 770.00 445.81
  A 0.84 0.84 0.0 0 1 770.84 444.97
  L 803.14 444.97
  A 0.80 0.80 0.0 0 1 803.94 445.77
  L 803.94 457.41
  A 0.17 0.17 0.0 0 0 804.24 457.52
  Q 813.08 447.57 826.08 444.76
  C 831.26 443.64 838.58 443.74 843.01 444.12
  Q 846.08 444.38 851.30 445.93
  Q 865.61 450.19 872.56 463.22
  A 0.38 0.38 0.0 0 0 873.22 463.25
  Q 883.21 447.57 901.48 444.22
  Q 903.39 443.87 911.28 443.95
  Q 917.17 444.01 921.00 445.05
  Q 934.46 448.70 942.54 457.48
  Q 951.08 466.75 953.79 481.74
  Q 954.24 484.24 954.66 490.48
  Q 954.93 494.51 954.93 499.22
  Q 954.88 549.49 955.07 572.11
  A 0.86 0.86 0.0 0 1 954.21 572.98
  L 921.72 572.98
  A 0.68 0.68 0.0 0 1 921.04 572.30
  Z"
/>
<rect fill="#0d94ff" x="448.90" y="444.96" width="34.56" height="128.04" rx="0.74"/>
<path fill="#0d94ff" d="
  M 553.02 544.42
  A 0.40 0.40 0.0 0 0 553.37 545.02
  L 613.33 545.02
  A 0.89 0.88 90.0 0 1 614.21 545.91
  L 614.21 572.50
  A 0.51 0.50 -0.0 0 1 613.70 573.00
  L 507.14 573.00
  A 0.53 0.53 0.0 0 1 506.61 572.47
  L 506.61 552.63
  A 0.97 0.96 64.0 0 1 506.81 552.04
  L 567.17 472.90
  A 0.31 0.31 0.0 0 0 566.92 472.40
  L 507.41 472.40
  A 0.77 0.77 0.0 0 1 506.64 471.63
  L 506.64 445.70
  A 0.74 0.73 -0.0 0 1 507.38 444.97
  L 610.27 444.97
  A 0.67 0.67 0.0 0 1 610.94 445.64
  Q 610.98 462.16 610.93 466.25
  Q 610.92 467.72 609.11 470.12
  Q 597.14 486.02 592.82 491.59
  Q 591.69 493.04 590.74 494.29
  Q 590.58 494.51 562.21 532.18
  C 558.81 536.70 555.54 540.27 553.02 544.42
  Z"
/>
</svg>
