<?xml version="1.0" encoding="UTF-8" standalone="no"?>
<!DOCTYPE svg PUBLIC "-//W3C//DTD SVG 1.1//EN" "http://www.w3.org/Graphics/SVG/1.1/DTD/svg11.dtd">
<svg xmlns="http://www.w3.org/2000/svg" version="1.1" viewBox="0.00 0.00 1024.00 1024.00">
<g stroke-width="2.00" fill="none" stroke-linecap="butt">
<path stroke="#81d3fd" vector-effect="non-scaling-stroke" d="
  M 184.65 499.65
  L 80.88 564.28
  A 3.76 3.75 74.1 0 0 79.11 567.47
  L 79.11 601.48
  A 0.94 0.94 0.0 0 0 80.22 602.41
  Q 82.18 602.07 84.26 600.75
  Q 193.10 531.60 193.86 531.15
  Q 196.16 529.79 221.41 513.70
  Q 223.43 512.41 223.41 510.77
  Q 223.26 500.34 223.42 486.73
  A 1.98 1.97 -73.4 0 0 222.52 485.05
  L 79.43 393.24
  A 0.23 0.23 0.0 0 0 79.08 393.43
  L 79.08 429.50
  A 3.71 3.68 -72.5 0 0 80.64 432.52
  Q 84.38 435.16 88.74 437.96
  Q 126.46 462.19 157.93 482.51
  Q 167.22 488.51 177.07 494.98
  C 179.38 496.49 181.65 497.62 184.61 499.03
  A 0.36 0.35 41.6 0 1 184.65 499.65"
/>
<path stroke="#81d3fd" vector-effect="non-scaling-stroke" d="
  M 478.9655 410.9935
  A 16.71 16.10 -10.4 0 0 459.6236 398.1745
  A 16.71 16.10 -10.4 0 0 446.0945 417.0265
  A 16.71 16.10 -10.4 0 0 465.4364 429.8455
  A 16.71 16.10 -10.4 0 0 478.9655 410.9935"
/>
<path stroke="#81d3fd" vector-effect="non-scaling-stroke" d="
  M 706.09 559.59
  L 706.09 571.92
  A 1.11 1.11 0.0 0 0 707.20 573.03
  L 733.89 573.03
  A 1.61 1.61 0.0 0 0 735.50 571.42
  Q 735.55 508.53 735.45 487.01
  C 735.39 473.30 728.59 459.71 716.47 453.05
  C 709.97 449.48 702.75 447.42 694.69 446.83
  Q 688.94 446.41 685.53 446.30
  Q 673.67 445.93 661.14 450.12
  Q 655.27 452.09 647.83 457.93
  C 639.61 464.39 635.12 473.49 633.36 483.63
  A 0.35 0.35 0.0 0 0 633.71 484.04
  Q 648.13 483.93 659.50 484.02
  Q 662.18 484.04 662.98 482.48
  C 669.04 470.69 685.20 469.99 695.97 473.59
  C 704.71 476.52 707.12 486.18 706.34 494.49
  A 0.49 0.49 0.0 0 1 705.85 494.94
  Q 693.52 495.00 666.24 494.97
  Q 653.98 494.96 644.21 500.99
  Q 626.26 512.06 626.79 534.32
  C 627.19 551.21 635.70 565.06 651.24 571.08
  Q 657.05 573.33 665.18 573.96
  Q 689.14 575.82 705.32 559.28
  A 0.45 0.45 0.0 0 1 706.09 559.59"
/>
<path stroke="#81d3fd" vector-effect="non-scaling-stroke" d="
  M 341.47 461.55
  A 0.35 0.35 0.0 0 1 340.85 461.33
  L 340.85 449.16
  A 1.64 1.64 0.0 0 0 339.21 447.52
  L 311.39 447.52
  A 1.36 1.35 -0.0 0 0 310.03 448.87
  Q 310.12 498.08 310.03 569.36
  C 310.02 571.47 310.41 573.00 312.75 573.01
  Q 326.07 573.06 338.95 572.98
  A 1.81 1.81 0.0 0 0 340.75 571.17
  Q 340.64 498.06 340.72 496.02
  C 341.14 485.06 345.20 475.75 356.35 473.10
  Q 363.44 471.41 368.90 472.23
  C 382.92 474.31 386.14 485.87 386.10 498.00
  Q 385.94 545.27 385.99 571.48
  A 1.52 1.52 0.0 0 0 387.51 572.99
  L 416.07 572.99
  A 1.54 1.54 0.0 0 0 417.61 571.46
  Q 417.78 520.38 417.40 487.26
  C 417.18 468.59 407.34 453.03 388.81 448.46
  Q 376.28 445.36 364.40 447.51
  Q 350.47 450.02 341.47 461.55"
/>
<path stroke="#81d3fd" vector-effect="non-scaling-stroke" d="
  M 862.02 465.07
  C 855.33 450.02 837.07 445.42 822.25 447.23
  C 810.57 448.66 803.01 454.46 795.54 463.08
  A 0.29 0.29 0.0 0 1 795.04 462.89
  L 795.04 448.76
  A 1.14 1.13 -90.0 0 0 793.91 447.62
  L 765.85 447.62
  A 0.83 0.83 0.0 0 0 765.02 448.45
  Q 765.01 519.52 765.04 569.64
  C 765.04 571.42 765.48 573.00 767.50 573.01
  Q 787.33 573.09 793.87 572.95
  A 1.02 1.01 -89.1 0 0 794.86 571.98
  Q 795.01 568.54 795.01 564.00
  Q 795.03 526.84 795.07 498.55
  C 795.08 494.01 795.49 488.69 797.04 484.55
  C 800.86 474.35 811.76 470.49 821.74 472.59
  C 830.86 474.51 835.97 481.25 836.24 490.28
  Q 836.59 502.03 836.51 566.25
  Q 836.51 568.75 836.85 571.65
  A 1.55 1.55 0.0 0 0 838.39 573.02
  L 866.00 573.02
  A 1.86 1.86 0.0 0 0 867.86 571.16
  Q 867.81 534.49 867.82 502.69
  C 867.82 491.51 867.31 482.04 877.81 475.06
  C 880.73 473.11 886.08 472.31 889.26 472.10
  Q 897.27 471.58 903.65 475.82
  C 909.86 479.94 911.15 487.55 911.13 494.66
  Q 911.05 536.09 911.13 571.11
  A 1.90 1.90 0.0 0 0 913.04 573.00
  Q 935.57 572.93 939.25 572.98
  Q 940.93 573.01 941.63 572.15
  A 1.09 1.03 66.0 0 0 941.87 571.47
  Q 941.87 517.30 941.86 491.82
  C 941.85 482.48 940.68 475.96 937.00 468.27
  C 931.16 456.09 919.56 448.89 906.19 447.16
  Q 899.37 446.28 891.23 447.01
  C 882.08 447.83 874.51 451.46 868.16 457.42
  Q 864.83 460.55 863.09 465.05
  A 0.58 0.58 0.0 0 1 862.02 465.07"
/>
<path stroke="#81d3fd" vector-effect="non-scaling-stroke" d="
  M 480.26 448.78
  A 1.21 1.21 0.0 0 0 479.05 447.57
  L 449.65 447.57
  A 1.21 1.21 0.0 0 0 448.44 448.78
  L 448.44 571.80
  A 1.21 1.21 0.0 0 0 449.65 573.01
  L 479.05 573.01
  A 1.21 1.21 0.0 0 0 480.26 571.80
  L 480.26 448.78"
/>
<path stroke="#81d3fd" vector-effect="non-scaling-stroke" d="
  M 546.27 546.02
  A 0.33 0.33 0.0 0 1 546.01 545.48
  Q 549.46 541.23 560.31 528.80
  Q 593.16 491.17 605.53 476.52
  Q 607.48 474.21 607.52 471.25
  Q 607.62 463.37 607.54 448.45
  A 0.59 0.58 7.4 0 0 607.11 447.90
  Q 605.73 447.54 604.50 447.55
  Q 560.92 447.82 505.80 447.60
  A 1.35 1.34 -89.8 0 0 504.45 448.95
  L 504.45 472.42
  A 0.80 0.79 -0.0 0 0 505.25 473.21
  L 565.86 473.21
  A 0.56 0.55 23.5 0 1 566.24 474.17
  Q 563.55 476.66 560.03 480.78
  Q 527.32 518.98 505.64 544.07
  A 2.28 2.08 -17.7 0 0 505.25 544.75
  Q 504.68 546.37 504.65 548.26
  Q 504.48 562.88 504.64 572.06
  A 0.98 0.97 89.4 0 0 505.61 573.02
  L 606.09 573.02
  A 1.36 1.36 0.0 0 0 607.45 571.66
  L 607.45 546.82
  A 0.80 0.79 90.0 0 0 606.66 546.02
  L 546.27 546.02"
/>
<path stroke="#81d3fd" vector-effect="non-scaling-stroke" d="
  M 705.51 513.09
  Q 680.74 513.28 674.51 513.23
  C 665.97 513.15 658.19 517.18 656.18 525.78
  Q 655.34 529.36 655.80 534.73
  C 657.36 552.84 681.45 553.87 693.64 547.87
  Q 704.93 542.32 705.98 530.28
  C 706.39 525.64 706.18 520.21 706.29 513.88
  A 0.77 0.77 0.0 0 0 705.51 513.09"
/>
</g>
<path fill="#02a6fb" fill-opacity="0.996" d="
  M 175.06 498.65
  Q 173.96 497.79 171.38 496.12
  Q 127.31 467.64 79.45 436.56
  Q 76.54 434.67 75.39 431.46
  A 3.29 3.08 36.4 0 1 75.20 430.44
  Q 74.91 413.74 75.12 393.26
  C 75.16 388.86 79.53 389.11 82.36 390.90
  Q 146.66 431.66 224.02 481.72
  Q 226.78 483.50 227.70 486.56
  A 3.94 3.72 -55.5 0 1 227.86 487.59
  Q 227.93 503.42 227.94 509.04
  C 227.95 513.00 227.23 514.61 223.60 516.90
  Q 194.21 535.48 83.82 605.58
  Q 78.31 609.08 75.28 603.54
  A 1.72 1.64 -60.4 0 1 75.08 602.74
  L 75.01 565.92
  A 1.88 1.44 59.3 0 1 75.06 565.50
  Q 75.75 563.07 80.69 559.95
  Q 121.15 534.50 160.76 510.21
  C 166.56 506.65 171.48 502.96 176.74 500.40
  A 0.66 0.66 0.0 0 0 176.61 499.16
  L 175.59 498.91
  A 1.41 1.33 69.4 0 1 175.06 498.65
  Z
  M 184.65 499.65
  L 80.88 564.28
  A 3.76 3.75 74.1 0 0 79.11 567.47
  L 79.11 601.48
  A 0.94 0.94 0.0 0 0 80.22 602.41
  Q 82.18 602.07 84.26 600.75
  Q 193.10 531.60 193.86 531.15
  Q 196.16 529.79 221.41 513.70
  Q 223.43 512.41 223.41 510.77
  Q 223.26 500.34 223.42 486.73
  A 1.98 1.97 -73.4 0 0 222.52 485.05
  L 79.43 393.24
  A 0.23 0.23 0.0 0 0 79.08 393.43
  L 79.08 429.50
  A 3.71 3.68 -72.5 0 0 80.64 432.52
  Q 84.38 435.16 88.74 437.96
  Q 126.46 462.19 157.93 482.51
  Q 167.22 488.51 177.07 494.98
  C 179.38 496.49 181.65 497.62 184.61 499.03
  A 0.36 0.35 41.6 0 1 184.65 499.65
  Z"
/>
<path fill="#ffffff" d="
  M 184.65 499.65
  A 0.36 0.35 41.6 0 0 184.61 499.03
  C 181.65 497.62 179.38 496.49 177.07 494.98
  Q 167.22 488.51 157.93 482.51
  Q 126.46 462.19 88.74 437.96
  Q 84.38 435.16 80.64 432.52
  A 3.71 3.68 -72.5 0 1 79.08 429.50
  L 79.08 393.43
  A 0.23 0.23 0.0 0 1 79.43 393.24
  L 222.52 485.05
  A 1.98 1.97 -73.4 0 1 223.42 486.73
  Q 223.26 500.34 223.41 510.77
  Q 223.43 512.41 221.41 513.70
  Q 196.16 529.79 193.86 531.15
  Q 193.10 531.60 84.26 600.75
  Q 82.18 602.07 80.22 602.41
  A 0.94 0.94 0.0 0 1 79.11 601.48
  L 79.11 567.47
  A 3.76 3.75 74.1 0 1 80.88 564.28
  L 184.65 499.65
  Z"
/>
<path fill="#02a6fb" fill-opacity="0.996" d="
  M 483.1038 410.2002
  A 20.86 20.07 -10.3 0 1 466.1686 433.6766
  A 20.86 20.07 -10.3 0 1 442.0562 417.6598
  A 20.86 20.07 -10.3 0 1 458.9914 394.1834
  A 20.86 20.07 -10.3 0 1 483.1038 410.2002
  Z
  M 478.9655 410.9935
  A 16.71 16.10 -10.4 0 0 459.6236 398.1745
  A 16.71 16.10 -10.4 0 0 446.0945 417.0265
  A 16.71 16.10 -10.4 0 0 465.4364 429.8455
  A 16.71 16.10 -10.4 0 0 478.9655 410.9935
  Z"
/>
<ellipse fill="#ffffff" cx="0.00" cy="0.00" transform="translate(462.53,414.01) rotate(-10.4)" rx="16.71" ry="16.10"/>
<path fill="#02a6fb" fill-opacity="0.996" d="
  M 665.33 485.85
  A 3.78 3.78 0.0 0 1 661.96 487.85
  Q 659.14 487.83 636.37 487.88
  C 629.59 487.89 629.09 482.57 630.73 477.08
  Q 635.40 461.42 647.92 452.95
  C 665.57 441.00 690.73 439.80 709.74 446.06
  Q 732.54 453.57 738.65 477.83
  Q 739.86 482.62 739.88 495.01
  Q 739.89 500.99 739.88 567.14
  C 739.88 573.26 738.53 576.81 732.04 576.90
  Q 719.16 577.08 707.76 576.81
  C 702.22 576.67 702.20 572.49 701.90 568.30
  A 0.48 0.47 68.6 0 0 701.13 567.96
  Q 693.24 574.11 683.39 576.38
  Q 673.45 578.67 663.74 577.71
  Q 653.02 576.65 644.87 572.32
  Q 629.43 564.11 624.22 546.23
  A 4.06 4.03 35.3 0 1 624.10 545.54
  Q 624.02 544.41 623.50 541.06
  C 621.50 528.31 623.89 515.48 632.44 505.96
  Q 639.86 497.69 650.30 494.04
  C 655.27 492.30 661.43 490.98 667.26 491.03
  Q 668.23 491.04 701.61 491.00
  A 0.55 0.55 0.0 0 0 702.16 490.47
  Q 702.54 482.99 697.81 479.17
  C 692.39 474.80 681.47 474.97 674.84 477.14
  C 669.85 478.77 667.53 481.69 665.33 485.85
  Z
  M 706.09 559.59
  L 706.09 571.92
  A 1.11 1.11 0.0 0 0 707.20 573.03
  L 733.89 573.03
  A 1.61 1.61 0.0 0 0 735.50 571.42
  Q 735.55 508.53 735.45 487.01
  C 735.39 473.30 728.59 459.71 716.47 453.05
  C 709.97 449.48 702.75 447.42 694.69 446.83
  Q 688.94 446.41 685.53 446.30
  Q 673.67 445.93 661.14 450.12
  Q 655.27 452.09 647.83 457.93
  C 639.61 464.39 635.12 473.49 633.36 483.63
  A 0.35 0.35 0.0 0 0 633.71 484.04
  Q 648.13 483.93 659.50 484.02
  Q 662.18 484.04 662.98 482.48
  C 669.04 470.69 685.20 469.99 695.97 473.59
  C 704.71 476.52 707.12 486.18 706.34 494.49
  A 0.49 0.49 0.0 0 1 705.85 494.94
  Q 693.52 495.00 666.24 494.97
  Q 653.98 494.96 644.21 500.99
  Q 626.26 512.06 626.79 534.32
  C 627.19 551.21 635.70 565.06 651.24 571.08
  Q 657.05 573.33 665.18 573.96
  Q 689.14 575.82 705.32 559.28
  A 0.45 0.45 0.0 0 1 706.09 559.59
  Z"
/>
<path fill="#02a6fb" fill-opacity="0.996" d="
  M 345.21 452.16
  C 350.64 448.56 354.67 446.01 360.38 444.59
  C 378.99 439.95 399.93 443.74 412.08 459.15
  C 419.48 468.53 421.97 478.86 421.95 490.83
  Q 421.90 527.70 421.95 566.75
  C 421.96 572.02 421.73 576.39 415.22 576.89
  Q 415.20 576.90 389.27 576.94
  Q 384.96 576.94 383.17 574.28
  Q 382.03 572.59 382.03 567.59
  Q 382.07 495.50 382.03 491.51
  C 382.00 489.09 380.32 484.31 378.79 482.00
  C 373.79 474.47 360.16 474.60 353.43 478.27
  C 345.90 482.36 344.65 489.83 344.60 497.75
  Q 344.36 531.13 344.56 571.29
  A 1.76 1.65 54.6 0 1 344.48 571.87
  Q 343.24 576.15 338.34 576.83
  Q 337.97 576.88 313.97 576.97
  Q 309.17 576.99 307.24 573.92
  Q 306.16 572.21 306.18 566.41
  Q 306.40 490.09 306.28 450.26
  Q 306.26 443.80 312.80 443.82
  Q 322.74 443.85 338.26 443.93
  C 342.81 443.95 344.39 447.79 344.60 451.85
  A 0.40 0.39 71.6 0 0 345.21 452.16
  Z
  M 341.47 461.55
  A 0.35 0.35 0.0 0 1 340.85 461.33
  L 340.85 449.16
  A 1.64 1.64 0.0 0 0 339.21 447.52
  L 311.39 447.52
  A 1.36 1.35 -0.0 0 0 310.03 448.87
  Q 310.12 498.08 310.03 569.36
  C 310.02 571.47 310.41 573.00 312.75 573.01
  Q 326.07 573.06 338.95 572.98
  A 1.81 1.81 0.0 0 0 340.75 571.17
  Q 340.64 498.06 340.72 496.02
  C 341.14 485.06 345.20 475.75 356.35 473.10
  Q 363.44 471.41 368.90 472.23
  C 382.92 474.31 386.14 485.87 386.10 498.00
  Q 385.94 545.27 385.99 571.48
  A 1.52 1.52 0.0 0 0 387.51 572.99
  L 416.07 572.99
  A 1.54 1.54 0.0 0 0 417.61 571.46
  Q 417.78 520.38 417.40 487.26
  C 417.18 468.59 407.34 453.03 388.81 448.46
  Q 376.28 445.36 364.40 447.51
  Q 350.47 450.02 341.47 461.55
  Z"
/>
<path fill="#02a6fb" fill-opacity="0.996" d="
  M 799.73 453.04
  Q 821.23 436.87 845.94 446.13
  Q 853.78 449.06 861.99 457.58
  A 0.52 0.52 0.0 0 0 862.75 457.57
  Q 874.63 444.64 892.52 442.97
  C 904.56 441.84 917.19 444.20 927.09 451.18
  C 936.88 458.08 943.98 469.09 945.20 481.27
  C 945.51 484.38 945.91 486.40 945.91 489.49
  Q 945.92 563.02 945.99 569.27
  C 946.07 575.83 942.41 577.00 936.27 576.92
  Q 933.15 576.88 916.29 576.96
  C 911.05 576.98 907.10 575.51 907.10 570.00
  Q 907.11 500.09 907.14 494.22
  Q 907.17 488.11 905.81 484.77
  C 902.84 477.52 895.02 475.40 887.71 475.99
  C 876.48 476.89 871.84 485.02 871.90 495.42
  Q 871.97 506.00 871.93 570.22
  C 871.92 575.43 867.94 576.86 863.25 576.89
  Q 850.45 576.98 838.55 576.89
  A 3.60 3.45 52.0 0 1 837.72 576.77
  Q 832.58 575.35 832.58 569.55
  Q 832.61 509.68 832.54 493.75
  C 832.51 485.34 829.66 477.92 820.48 476.25
  C 812.25 474.76 803.79 477.56 800.73 485.98
  Q 799.17 490.24 799.18 494.75
  Q 799.32 558.71 799.18 566.75
  Q 799.14 569.37 798.87 572.18
  A 3.14 2.88 62.2 0 1 798.63 573.09
  Q 797.03 576.70 792.89 576.85
  Q 791.41 576.90 770.51 576.97
  Q 765.82 576.99 763.85 575.71
  Q 760.97 573.84 760.98 569.75
  Q 761.09 516.20 760.96 458.75
  Q 760.95 452.55 761.06 448.72
  A 2.48 2.47 59.0 0 1 761.30 447.75
  Q 763.04 444.15 766.55 443.97
  Q 769.85 443.81 791.76 443.89
  C 795.18 443.90 796.89 444.59 798.28 447.61
  Q 799.37 449.97 799.09 452.68
  A 0.40 0.40 0.0 0 0 799.73 453.04
  Z
  M 862.02 465.07
  C 855.33 450.02 837.07 445.42 822.25 447.23
  C 810.57 448.66 803.01 454.46 795.54 463.08
  A 0.29 0.29 0.0 0 1 795.04 462.89
  L 795.04 448.76
  A 1.14 1.13 -90.0 0 0 793.91 447.62
  L 765.85 447.62
  A 0.83 0.83 0.0 0 0 765.02 448.45
  Q 765.01 519.52 765.04 569.64
  C 765.04 571.42 765.48 573.00 767.50 573.01
  Q 787.33 573.09 793.87 572.95
  A 1.02 1.01 -89.1 0 0 794.86 571.98
  Q 795.01 568.54 795.01 564.00
  Q 795.03 526.84 795.07 498.55
  C 795.08 494.01 795.49 488.69 797.04 484.55
  C 800.86 474.35 811.76 470.49 821.74 472.59
  C 830.86 474.51 835.97 481.25 836.24 490.28
  Q 836.59 502.03 836.51 566.25
  Q 836.51 568.75 836.85 571.65
  A 1.55 1.55 0.0 0 0 838.39 573.02
  L 866.00 573.02
  A 1.86 1.86 0.0 0 0 867.86 571.16
  Q 867.81 534.49 867.82 502.69
  C 867.82 491.51 867.31 482.04 877.81 475.06
  C 880.73 473.11 886.08 472.31 889.26 472.10
  Q 897.27 471.58 903.65 475.82
  C 909.86 479.94 911.15 487.55 911.13 494.66
  Q 911.05 536.09 911.13 571.11
  A 1.90 1.90 0.0 0 0 913.04 573.00
  Q 935.57 572.93 939.25 572.98
  Q 940.93 573.01 941.63 572.15
  A 1.09 1.03 66.0 0 0 941.87 571.47
  Q 941.87 517.30 941.86 491.82
  C 941.85 482.48 940.68 475.96 937.00 468.27
  C 931.16 456.09 919.56 448.89 906.19 447.16
  Q 899.37 446.28 891.23 447.01
  C 882.08 447.83 874.51 451.46 868.16 457.42
  Q 864.83 460.55 863.09 465.05
  A 0.58 0.58 0.0 0 1 862.02 465.07
  Z"
/>
<path fill="#02a6fb" fill-opacity="0.996" d="
  M 484.19 570.92
  A 5.98 5.98 0.0 0 1 478.21 576.90
  L 450.39 576.90
  A 5.98 5.98 0.0 0 1 444.41 570.92
  L 444.41 449.88
  A 5.98 5.98 0.0 0 1 450.39 443.90
  L 478.21 443.90
  A 5.98 5.98 0.0 0 1 484.19 449.88
  L 484.19 570.92
  Z
  M 480.26 448.78
  A 1.21 1.21 0.0 0 0 479.05 447.57
  L 449.65 447.57
  A 1.21 1.21 0.0 0 0 448.44 448.78
  L 448.44 571.80
  A 1.21 1.21 0.0 0 0 449.65 573.01
  L 479.05 573.01
  A 1.21 1.21 0.0 0 0 480.26 571.80
  L 480.26 448.78
  Z"
/>
<path fill="#02a6fb" fill-opacity="0.996" d="
  M 554.03 541.89
  A 0.12 0.12 0.0 0 0 554.12 542.09
  L 606.24 542.09
  A 1.03 0.89 -30.8 0 1 606.58 542.15
  C 610.26 543.50 611.82 545.82 611.85 550.05
  Q 611.97 565.26 611.73 571.21
  A 3.16 3.14 54.4 0 1 611.59 572.07
  Q 610.21 576.88 604.25 576.89
  Q 559.79 576.95 509.01 576.92
  C 504.15 576.92 500.66 576.08 500.61 570.68
  Q 500.46 555.19 500.63 545.57
  A 4.20 4.18 -24.4 0 1 501.63 542.94
  L 557.60 477.66
  A 0.37 0.36 20.1 0 0 557.32 477.06
  Q 542.43 477.04 506.49 477.12
  C 501.64 477.13 500.54 473.94 500.51 469.48
  Q 500.40 452.11 500.73 448.74
  Q 501.01 445.86 503.13 444.66
  Q 504.56 443.86 507.96 443.86
  Q 600.19 443.92 601.65 443.87
  C 607.40 443.69 611.77 444.66 611.77 451.00
  Q 611.76 460.91 611.58 472.23
  C 611.54 474.80 610.12 477.14 608.27 479.34
  Q 599.63 489.62 593.38 496.61
  Q 593.34 496.66 591.53 498.78
  Q 587.93 502.99 554.03 541.89
  Z
  M 546.27 546.02
  A 0.33 0.33 0.0 0 1 546.01 545.48
  Q 549.46 541.23 560.31 528.80
  Q 593.16 491.17 605.53 476.52
  Q 607.48 474.21 607.52 471.25
  Q 607.62 463.37 607.54 448.45
  A 0.59 0.58 7.4 0 0 607.11 447.90
  Q 605.73 447.54 604.50 447.55
  Q 560.92 447.82 505.80 447.60
  A 1.35 1.34 -89.8 0 0 504.45 448.95
  L 504.45 472.42
  A 0.80 0.79 -0.0 0 0 505.25 473.21
  L 565.86 473.21
  A 0.56 0.55 23.5 0 1 566.24 474.17
  Q 563.55 476.66 560.03 480.78
  Q 527.32 518.98 505.64 544.07
  A 2.28 2.08 -17.7 0 0 505.25 544.75
  Q 504.68 546.37 504.65 548.26
  Q 504.48 562.88 504.64 572.06
  A 0.98 0.97 89.4 0 0 505.61 573.02
  L 606.09 573.02
  A 1.36 1.36 0.0 0 0 607.45 571.66
  L 607.45 546.82
  A 0.80 0.79 90.0 0 0 606.66 546.02
  L 546.27 546.02
  Z"
/>
<path fill="#ffffff" d="
  M 706.09 559.59
  A 0.45 0.45 0.0 0 0 705.32 559.28
  Q 689.14 575.82 665.18 573.96
  Q 657.05 573.33 651.24 571.08
  C 635.70 565.06 627.19 551.21 626.79 534.32
  Q 626.26 512.06 644.21 500.99
  Q 653.98 494.96 666.24 494.97
  Q 693.52 495.00 705.85 494.94
  A 0.49 0.49 0.0 0 0 706.34 494.49
  C 707.12 486.18 704.71 476.52 695.97 473.59
  C 685.20 469.99 669.04 470.69 662.98 482.48
  Q 662.18 484.04 659.50 484.02
  Q 648.13 483.93 633.71 484.04
  A 0.35 0.35 0.0 0 1 633.36 483.63
  C 635.12 473.49 639.61 464.39 647.83 457.93
  Q 655.27 452.09 661.14 450.12
  Q 673.67 445.93 685.53 446.30
  Q 688.94 446.41 694.69 446.83
  C 702.75 447.42 709.97 449.48 716.47 453.05
  C 728.59 459.71 735.39 473.30 735.45 487.01
  Q 735.55 508.53 735.50 571.42
  A 1.61 1.61 0.0 0 1 733.89 573.03
  L 707.20 573.03
  A 1.11 1.11 0.0 0 1 706.09 571.92
  L 706.09 559.59
  Z
  M 705.51 513.09
  Q 680.74 513.28 674.51 513.23
  C 665.97 513.15 658.19 517.18 656.18 525.78
  Q 655.34 529.36 655.80 534.73
  C 657.36 552.84 681.45 553.87 693.64 547.87
  Q 704.93 542.32 705.98 530.28
  C 706.39 525.64 706.18 520.21 706.29 513.88
  A 0.77 0.77 0.0 0 0 705.51 513.09
  Z"
/>
<path fill="#ffffff" d="
  M 341.47 461.55
  Q 350.47 450.02 364.40 447.51
  Q 376.28 445.36 388.81 448.46
  C 407.34 453.03 417.18 468.59 417.40 487.26
  Q 417.78 520.38 417.61 571.46
  A 1.54 1.54 0.0 0 1 416.07 572.99
  L 387.51 572.99
  A 1.52 1.52 0.0 0 1 385.99 571.48
  Q 385.94 545.27 386.10 498.00
  C 386.14 485.87 382.92 474.31 368.90 472.23
  Q 363.44 471.41 356.35 473.10
  C 345.20 475.75 341.14 485.06 340.72 496.02
  Q 340.64 498.06 340.75 571.17
  A 1.81 1.81 0.0 0 1 338.95 572.98
  Q 326.07 573.06 312.75 573.01
  C 310.41 573.00 310.02 571.47 310.03 569.36
  Q 310.12 498.08 310.03 448.87
  A 1.36 1.35 -0.0 0 1 311.39 447.52
  L 339.21 447.52
  A 1.64 1.64 0.0 0 1 340.85 449.16
  L 340.85 461.33
  A 0.35 0.35 0.0 0 0 341.47 461.55
  Z"
/>
<path fill="#ffffff" d="
  M 862.02 465.07
  A 0.58 0.58 0.0 0 0 863.09 465.05
  Q 864.83 460.55 868.16 457.42
  C 874.51 451.46 882.08 447.83 891.23 447.01
  Q 899.37 446.28 906.19 447.16
  C 919.56 448.89 931.16 456.09 937.00 468.27
  C 940.68 475.96 941.85 482.48 941.86 491.82
  Q 941.87 517.30 941.87 571.47
  A 1.09 1.03 66.0 0 1 941.63 572.15
  Q 940.93 573.01 939.25 572.98
  Q 935.57 572.93 913.04 573.00
  A 1.90 1.90 0.0 0 1 911.13 571.11
  Q 911.05 536.09 911.13 494.66
  C 911.15 487.55 909.86 479.94 903.65 475.82
  Q 897.27 471.58 889.26 472.10
  C 886.08 472.31 880.73 473.11 877.81 475.06
  C 867.31 482.04 867.82 491.51 867.82 502.69
  Q 867.81 534.49 867.86 571.16
  A 1.86 1.86 0.0 0 1 866.00 573.02
  L 838.39 573.02
  A 1.55 1.55 0.0 0 1 836.85 571.65
  Q 836.51 568.75 836.51 566.25
  Q 836.59 502.03 836.24 490.28
  C 835.97 481.25 830.86 474.51 821.74 472.59
  C 811.76 470.49 800.86 474.35 797.04 484.55
  C 795.49 488.69 795.08 494.01 795.07 498.55
  Q 795.03 526.84 795.01 564.00
  Q 795.01 568.54 794.86 571.98
  A 1.02 1.01 -89.1 0 1 793.87 572.95
  Q 787.33 573.09 767.50 573.01
  C 765.48 573.00 765.04 571.42 765.04 569.64
  Q 765.01 519.52 765.02 448.45
  A 0.83 0.83 0.0 0 1 765.85 447.62
  L 793.91 447.62
  A 1.14 1.13 90.0 0 1 795.04 448.76
  L 795.04 462.89
  A 0.29 0.29 0.0 0 0 795.54 463.08
  C 803.01 454.46 810.57 448.66 822.25 447.23
  C 837.07 445.42 855.33 450.02 862.02 465.07
  Z"
/>
<rect fill="#ffffff" x="448.44" y="447.57" width="31.82" height="125.44" rx="1.21"/>
<path fill="#ffffff" d="
  M 546.27 546.02
  L 606.66 546.02
  A 0.80 0.79 -90.0 0 1 607.45 546.82
  L 607.45 571.66
  A 1.36 1.36 0.0 0 1 606.09 573.02
  L 505.61 573.02
  A 0.98 0.97 89.4 0 1 504.64 572.06
  Q 504.48 562.88 504.65 548.26
  Q 504.68 546.37 505.25 544.75
  A 2.28 2.08 -17.7 0 1 505.64 544.07
  Q 527.32 518.98 560.03 480.78
  Q 563.55 476.66 566.24 474.17
  A 0.56 0.55 23.5 0 0 565.86 473.21
  L 505.25 473.21
  A 0.80 0.79 0.0 0 1 504.45 472.42
  L 504.45 448.95
  A 1.35 1.34 -89.8 0 1 505.80 447.60
  Q 560.92 447.82 604.50 447.55
  Q 605.73 447.54 607.11 447.90
  A 0.59 0.58 7.4 0 1 607.54 448.45
  Q 607.62 463.37 607.52 471.25
  Q 607.48 474.21 605.53 476.52
  Q 593.16 491.17 560.31 528.80
  Q 549.46 541.23 546.01 545.48
  A 0.33 0.33 0.0 0 0 546.27 546.02
  Z"
/>
<path fill="#02a6fb" fill-opacity="0.996" d="
  M 705.51 513.09
  A 0.77 0.77 0.0 0 1 706.29 513.88
  C 706.18 520.21 706.39 525.64 705.98 530.28
  Q 704.93 542.32 693.64 547.87
  C 681.45 553.87 657.36 552.84 655.80 534.73
  Q 655.34 529.36 656.18 525.78
  C 658.19 517.18 665.97 513.15 674.51 513.23
  Q 680.74 513.28 705.51 513.09
  Z
  M 702.12 517.56
  A 0.70 0.70 0.0 0 0 701.44 516.97
  Q 693.50 516.93 680.26 517.02
  C 672.91 517.07 669.09 516.70 663.98 520.45
  Q 660.63 522.91 660.04 526.30
  Q 659.30 530.52 660.14 536.43
  A 4.58 4.33 32.0 0 0 660.38 537.35
  Q 663.30 544.75 671.52 546.41
  C 679.56 548.04 689.27 547.42 695.62 542.07
  C 700.77 537.72 702.10 533.18 702.18 526.20
  Q 702.27 518.58 702.12 517.56
  Z"
/>
</svg>
